<?xml version="1.0" encoding="UTF-8"?>
<svg id="Livello_2" data-name="Livello 2" xmlns="http://www.w3.org/2000/svg" viewBox="0 0 381.66 80.02">
  <defs>
    <style>
      .cls-1 {
        fill: #205d38;
      }

      .cls-2 {
        fill: #9b9d42;
      }

      .cls-3 {
        fill: #56a280;
      }

      .cls-4 {
        fill: #59a07c;
      }

      .cls-5 {
        fill: #1e5b3e;
      }

      .cls-6 {
        fill: #17230e;
      }

      .cls-7 {
        fill: #949844;
      }

      .cls-8 {
        fill: #344b20;
      }

      .cls-9 {
        fill: #5f6e23;
      }

      .cls-10 {
        fill: #1d593c;
      }

      .cls-11 {
        fill: #1f5c40;
      }

      .cls-12 {
        fill: #6d792e;
      }

      .cls-13 {
        fill: #ceb83d;
      }

      .cls-14 {
        fill: #b0d13a;
      }

      .cls-15 {
        fill: #1c5a3c;
      }

      .cls-16 {
        fill: #506627;
      }

      .cls-17 {
        fill: #4b7b27;
      }

      .cls-18 {
        fill: #f5faee;
      }

      .cls-19 {
        fill: #5a9a48;
      }

      .cls-20 {
        fill: #1a7a5c;
      }

      .cls-21 {
        fill: #929643;
      }

      .cls-22 {
        fill: #7f8638;
      }

      .cls-23 {
        fill: #5d9d49;
      }

      .cls-24 {
        fill: #457225;
      }

      .cls-25 {
        fill: #57a07b;
      }

      .cls-26 {
        fill: #5aa27d;
      }

      .cls-27 {
        fill: #59a27f;
      }

      .cls-28 {
        fill: #4a7731;
      }

      .cls-29 {
        fill: #487530;
      }

      .cls-30 {
        fill: #b0d33c;
      }

      .cls-31 {
        fill: #457729;
      }

      .cls-32 {
        fill: #4a7730;
      }

      .cls-33 {
        fill: #4b7530;
      }

      .cls-34 {
        fill: #e4f4df;
      }

      .cls-35 {
        fill: #33602a;
      }

      .cls-36 {
        fill: #f4faf2;
      }

      .cls-37 {
        fill: #928718;
      }
    </style>
  </defs>
  <g id="Livello_1-2" data-name="Livello 1">
    <g>
      <g>
        <path class="cls-29" d="M62.93,20.45c-.29-.35-.75-1.39-.2-1.58.09-.1.2-.21.35-.23.52-.08,2.73.95,3.3,1.27-.49-.65-1.22-1.12-2.18-1.39-.55-.2-.77-.47-.67-.83-.85-.45-.05-1,.65-1.24l.33.19c.24-.2.49-.16.77.12-.08-.22-.05-.34.17-.49-.3-.38.4-1.04.8-.78-.06.33-.03.79.09,1.14.64-1.85,1.22-2.11,1.89-4.06,1.36,2.96-.83,4.71-1.08,6.16-.08.44.27.85.31,1.27.7-2.32,1.88-2.95,3.01-5.14,1.11,3.41-1.75,5.53-2.34,6.94-.21.51.25,1.18.34,1.67,1.08-2.88,2.62-3.13,4.14-5.93.55,2.43-.55,4.64-2.21,6.28-1.93,1.9-1.58,1.26-1.19,3.72.96-3.29,3.7-3.64,5.45-6.78.6,3.38-1.8,5.71-4.09,7.53-1.34,1.07-1.14,1.11-.79,3.1,1.88-3.63,4.35-3.28,6.88-6.87.18,2.25-.86,4.12-2.34,5.62-1.04,1.05-2.28,1.76-3.51,2.59-1.16.79-1.07.45-.9,2.96,2.35-3.78,5.48-3.09,8.35-6.74.01,1.96-.95,3.63-2.25,4.94-2.32,2.33-5.44,2.85-6.09,3.8-.42.61-.18,1.56-.25,2.3.73-.93,1.48-1.67,2.53-2.21,3.1-1.48,4.53-1.49,7.31-3.95-.79,4.75-5.06,6.34-8.98,7.56-1.54.48-1.18.93-1.5,2.82,3.28-3.44,6.98-1.85,10.99-4.73-.52,1.7-1.64,2.94-3.02,3.88-3.13,2.13-6.36,1.81-7.81,2.3-.34.12-.53.37-.81.18-1.06-.74-.34-.58-.25-2.61-2.03-1.24-3.76-1.46-5.91-2.87-1.86-1.22-3.29-2.98-3.71-5.24,2.72,2.3,4.01,2.23,6.89,3.64,1.33.66,2.29,1.63,2.97,2.99.24-.97.38-1.91.37-2.92-2.26-1.19-4.35-1.54-6.45-3.19-1.39-1.09-2.52-2.49-2.88-4.34,2.89,2.12,4.33,1.99,7.15,3.58.98.55,1.58,1.32,2.23,2.27.1-.94.26-1.81.04-2.65-.23-.9-7.63-1.44-8.8-6.64,3.24,2.32,6.76,1.68,8.82,5.02.02-.99-.03-1.84-.21-2.75l-4.14-1.66c-1.87-.75-3.35-2.24-3.92-4.25,2.97,1.88,5.97,1.56,7.89,4.25-.08-.77.01-1.87-.48-2.36-1.04-.71-2.33-.8-3.43-1.34-1.61-.79-3.07-1.87-3.54-3.72,2.69,1.54,4.94,1.15,6.78,3.37-.21-.73-.09-1.49-.55-1.89-.73-.63-3.29-1.02-4.31-2.05Z"/>
        <path class="cls-1" d="M63.88,14.49c.34-.24.82-.22,1.42.07.47,0,.78.14.94.42.09.06.23.12.24.25.01.12-.17.17-.22.24l-.8.78c-.33.36-.64.48-.94.37-.37.23-.95.29-1.12.79.16.1.4.29.13.27-.65.31-.87.59-.65.85l-.14.33c-.1.23.6,1.7.2,1.58l-5.29.41c.68,1.93,1.9,3.44,2.75,5.34-1.8-.42-4.72-2.37-5.57.07-.66-.7-2.05-2.71-2.92-2.62-.64.07-.82,1.53-1.13,2.32-1.4-1.64-2.38-3.54-2.91-5.77-1.29,1.79-2.57,3.35-4.41,4.35-.29.16-.67.15-.77-.13-.05-.15-.19-.41.07-.56,1.76-1.04,3.26-2.37,4.34-4.16-2.23.23-4.25.05-6.31-.75l1.4-1.09c1.41-.95-2.23-2.11-2.73-2.39-.46-.14-.42-.45.13-.92.27-.33.38-.74.27-1.16-.38-.11-.68-.45-.9-1-.39-.33-.59-.68-.6-1.04-.6-.59-.67-1.02-.2-1.28.28-.12.51.02.69.42.08-.21.29-.29.64-.24l3.23.42c-.14-.68-.34-1.36-.59-2.01l.23-.35c-.46.13-.94-.53-.45-.82l-.27-.73c-.56-.56-.6-.91-.1-1.04.58,0,1.33.55,1.87.17.92-.65,1.06-4.25,1.28-5.46.8.92,2.48,4.02,3.53,3.99.35-.01.63-.22,1.11-.4.23,1.49.27,2.93.8,4.39,1.18-.97,2.03-4.15,2.76-5.69.47.54.6,1.21,1.12,1.6,1.09.82,4.35-1.99,5.52-2.64-.13,1.31-1.62,6.47.36,6.34l1.48.24c-1.41,1.6-2.88,2.97-4.01,4.88,1.56.05,2.94-.65,4.48-.89-.09.57-.18,1.19.26,1.56.53.45,1.18.52,1.75.68Z"/>
        <path class="cls-24" d="M41.57,5.72c-.19.79.44.61.36,1.76-.16.11-.28-.06-.35-.5-.99-.13-1.88-1.08-1.42-2.19,2.22-2.58.58-3.34-2.03-2.03-.69.12-1.17.14-1.66-.45-.3-1.11-.82-1.44-1.55-.97-.83.8-1.59,1.69-2.27,2.66-1.06.86-1.92.51-2.47-.63-.48-2.93-2.65-2-3.36.18l-.85,3.89c-.67,1.33-1.67,1.38-2.6.26-2.04-4.01-3.58-1.06-3.3,1.99l.45,3.02c.02,1.07-.18,2.19-1.56,2.02-1.76-1.01-2.33,0-1.72,3.02l-.06,3.35c1.03-1.23,1.33-2.74.9-4.54-.01-.36.11-.53.46-.43.64.18.78,1.9.78,2.51,3.4-2.55,3.28-5.98,2.37-9.9.26-.66.35-.64.74-.11.92,1.28.75,4.76.61,6.33,3.86-2.3,4.7-6.26,5.13-10.47.2-.48.37-.75.64-.3.26,2.14.06,4.29-.62,6.44l2.87-2.08c1.52-1.35,2.63-3.08,3.33-5.18.55-.69.74-.31.71.46l-.78,2.36c.75-.41,1.5-.86,2.25-1.33.96-.65,1.45-.63,1.45.04l-2.71,2.01c.63-.08,3.93-.25,3.86.5-.02.18-.35.27-.57.31-3.88-.06-6.8,1.2-9.5,3.94,2.54-.17,5.11-.04,7.54.78.58.51.06.68-.49.74-2.79-.37-6.2-.79-8.88.29-.62.25-3.23,2.27-3.28,2.68,1.63-.05,3.29.12,4.83.66.34.12,3.01,1.27,3.02,1.54.02.34.02.56-.36.58-3.41-1.47-8.71-2.88-11.12.86.66-.02,2.7.26,2.95.87.14.34-.05.48-.41.52-2.08-.6-3.67-.26-4.76,1.02,1.9-.43,3.72-.18,5.57.17,1.65.13,1.98-.54,1.1-1.97-.18-1.41,1.01-1.47,2.11-1.26l4.46,1.49c3.24.46,4.28-1.7,1.23-3.37-.96-1.19-.51-2.16.94-2.48,1.78.19,3.5.09,5.13-.28l.77-.61c.03-.31.17-.49.41-.53.47,1.12-.65,1.68-.4,2.09-2.71,1.15-4.34-.09-6.27.69.84,1.1,2.87,1.6,2.33,3.77-.18.71-.82,1.36-1.64,1.66-2.95,1.08-5.28-1.21-7.9-1.33.37.83.67,1.59.23,2.35-.3.52-1,.89-1.77.93-2.58.15-3.58-1.45-8.19.64-.61.67-1.41.94-.93-.21,1.47-3.21.26-8.08.73-9.51.18-.55.55-1,.98-1.18,1.16-.48,1.89.53,2.27.18.6-.54-1.71-5.57.58-7.96.52-.55,1.15-.86,1.91-.8,1.68.14,1.93,1.84,2.79,2.72.43-.34.48-.84.56-1.31.34-2.03.62-4.83,3.02-5.58,1.14-.36,2.18.18,2.67,1.25.24.53.22,1.13.64,1.63,1.21-.71,1.56-2.38,3.03-3.14,1.08-.56,2.32-.17,2.7,1s1.26-.25,2.93-.31c.77-.03,1.44.27,1.83.79,1.51,2.04-1.75,3.73-.42,3.99Z"/>
        <path class="cls-8" d="M58.12,65.42c.31.34.25.77-.18,1.28-.15.18-.24.4-.32.68-.6,2.22-1.5,4.27-2.81,6.16-3.23,4.65-9.24,7.2-14.18,4.89l-3.59-1.68c-1.51.12-3.42,1.64-4.33,0,1.29-.24,2.54-.26,3.63-.89.43-.37.4-1.34.42-1.92.23-4.47.9-7.69,3.81-11.1-.21-.22-.1-.32.35-.31.06-.33.29-.52.71-.58l.12-.21c3.94-2.86,7.6-3.37,12.15-5.42,1.7-.77,3.04-1.84,4.33-3.22.72,4.26.54,8.31-.12,12.3Z"/>
        <path class="cls-16" d="M11.68,29.1c-.06-.8.16-1.84.63-.64.05.03.19.16.21.1.07-.23,3.15-5.32,2.82-4.61.04.19,0,.4.18.58.26-.19.51-.26.75-.37-2.63,3.52-4.59,7.75-5.4,12.18-.03.17.09.22.15.28.41-.22.57.05.44.46-1.98,2.31-.86,9.17.06,12.22l1.02-1.92c-1.53-4.71.75-7.62,4.16-10.37,1.02-.82,1.82-1.73,2.68-2.82.99,2.39,1.28,4.95.82,7.39-.69,3.63-3.37,5.91-6.89,6.48-1.22.67-1.48,3.71-1.41,5.09-.47-1.55-1.19-2.81-2.32-3.9-.42-.52-.45-1.12.27-.65.06.1.18.33.3.33.14,0,.3-.26.25-.45-1.21-4.44,0-4.07-2.94-8.34-.02-.39.19-.4.5-.3.62.48,1.11,1.35,1.55,2.02-.11-.66.23-1.27-.04-1.8-.66-1.28-1.28-2.79-2.07-3.94-1.67-.91-2.87-2.11-3.51-3.94-1.59-4.52.04-9.67,2.63-13.55-.06,4.75,1.18,6.35,2.42,10.46.7,2.28.45,4.59-.64,6.7.41.95.78,1.81,1.38,2.63.36-2.85,1-5.41,2.04-7.97.19-.46-.02-.94-.02-1.35Z"/>
        <path class="cls-37" d="M57.95,66.7c-.15-.45.11-.86.18-1.28,3.4-2.66,5.15-6,2.64-10.17-1.85-3.08-4.44-3.52-4.35-5.42.08-1.68,2.56-1.96,3.03-2.38,2.48-2.23,2.73-.36,4.29-1.29,1.05-.63,1.85-.24,3.46.07,1.17.22,1.92,1.21,1.75,2.39-.06.79-.37,1.49-.58,2.26.73-.72,1.34-1.55,2.32-1.96,1.21-.51,2.47.3,2.9,1.51.24.68.45,1.25,1.04,1.69,1.43,1.04.53,2.57,1.1,3.38.47.66.65,1.48.28,2.25-.54,1.1.08,3.18-1.48,3.61-1.88.52-3.77-2.05-7.99-1.39-2.06.32-3.76,1.38-4.95,3.08-1.02,1.45-2.23,2.72-3.65,3.66Z"/>
        <path class="cls-17" d="M13.02,67.14c-1.18.75-2.86,1.89-4.11.82s-.15-2.27-1.26-3.5c-.59-.66-.72-1.59-.34-2.39.64-1.37-.86-2.17.42-3.42.42-.41.63-.9.57-1.54-.11-1.24.51-2.49,1.76-2.83.74-.2,1.54.09,2.16.49l2.13,1.38c-.66-1.43-2.46-3.83-1.05-5.21,1.83-1.79,3.13-.14,4.95-1.44.89-.64,2.01-.72,2.94-.15.66.4,1.35.53,2.14.47,1.2-.09,2.39.4,2.93,1.49.79,1.57-1.21,3.03-2.3,5.69s-1.08,5.54.28,8.04c.61,1.12,1.52,1.85,2.51,2.62,2.62,2.03,5.68,3.41,8.93,3.85.19.05.07.87-.21.83-3.61-.53-6.99-2.05-9.79-4.44-3.83-3.27-8.51-3.39-12.68-.74Z"/>
        <path class="cls-3" d="M40.94,62.55c-.06.13-.26.2-.35.31-.78.12-1.64.53-2.21,1.16-.18.11-.25.12-.21.03-3.23,1.71-6.36,2.92-9.9.82-1.01-.6-3.59-2.85-3.48-4.03.03-.32.07-.43.45-.34,1.54.61,3.1,1.21,4.74,1.53-.82-.19-4.55-1.37-4.53-2.05,0-.08.12-.17.26-.24.37-.27,3.19-1.08,3.85-1.21,1.63-.32,3.35-.08,4.84.65,1.51.93,3.08,1.73,4.71,2.42.75.16,1.35.48,1.82.96Z"/>
        <path class="cls-35" d="M36.31,79.9c-5.7.58-12.18-1.02-16.4-5.26-1.83-1.84-2.85-4.16-2.88-6.71l-1.44-1.03c1.26-.93,1.3.44,2.47.21,3.02-.59,5.94,1.07,7.82,3.32,3.59,4.28,4.15,6.8,10.42,9.48Z"/>
        <path class="cls-11" d="M69.18,62.74c1.06,8.58-9.42,13.9-16.38,14.83,2.42-2.08,4.2-4.41,5.57-7.17.8-1.61,1.63-3.1,2.73-4.51,1.64-2.05,3.9-3.48,6.54-3.71,1.63-.14,1.29-1.04,2.05-1.17.2-.03.73.09.68.3-.3.52-1.07.88-1.2,1.42Z"/>
        <path class="cls-10" d="M11.45,37.08c-.17-.13-.3-.3-.44-.46.04-.29.23-.54.46-.8l1.22-1.37c.52-7.33,9.37-10.7,15.86-9.59-4.98,2.46-5.15,5.43-8.99,8.47-1.91,1.44-4.06,2.12-6.44,1.79l-1.68,1.96Z"/>
        <path class="cls-20" d="M41.76,61.76l.23.3c-.31.29-.72.38-1.06.49-2.09-.62-4.01-1.49-5.91-2.67-2.11-1.31-4.55-1.53-6.81-.62-.88.33-1.71.55-2.58.71,2.76,1.56,5.72,2.14,8.86,2.59-3.39.4-6.6-.56-9.55-1.87,1.6,3.65,5.94,6.02,9.61,4.58l3.57-1.4c.13-.05.3.01.25.14-.41.45-.51.91-1.27,1.18l-2.8.99c-3.91,1.38-8.1-1.38-10.09-4.82-.38-.65-.09-1.57.05-2.23,1.32.09,2.46-.16,3.63-.62,6.15-2.42,8.44,2.72,13.85,3.25Z"/>
        <path class="cls-15" d="M12.3,28.46c-.11-.07-.14-.26-.32-.35-.15.4-.16.71-.31.99l-.52-2.54c-1.46-1.34-2.13-3.17-2.12-5.17.07-4.58,3.09-9.07,6.89-11.58-1.71,4.23-1.14,6.63-1.33,10.85-.15,2.21-.96,4.24-2.54,5.79l.25,2.01Z"/>
        <path class="cls-5" d="M9.83,48.6c-.12.01-.25.06-.32.19-.06.11.02.25.2.37,0,.1-.07.17-.15.1-.3-.29-.75-.49-1.15-.78-2.12.07-4.04-.79-5.49-2.37C.04,42.94-.74,38.37.72,34.25c.59,1.49.94,2.87,1.89,4.04,2.59,3.19,6.19,3.39,6.44,9.38.23.31.64.68.78.93Z"/>
        <path class="cls-2" d="M8.39,54.26l-.76,1.07c-.56-.04-1.03-.34-1.42-.9.34.48.76.88,1.24,1.19l.04.37c-.15.73.11,1.42-.34,1.93-1.47-.68-2.75-1.77-3.57-3.28-.54-.99-1.64-4.72-1.35-5.69.1-.34.26-.39.61-.37.24,0,3.49,1.92,3.76,2.15.32.27.6.57.86.9.5.63,1.35,1.91.93,2.63Z"/>
        <path class="cls-32" d="M67.15,45.28c-1.38-.31-2.66-.52-3.97.11-2.54-1.08-5.07-3.24-5.54-6.24,2.76,2.43,4.82,2.31,7.66,4.02.76.55,1.49,1.09,1.86,2.1Z"/>
        <path class="cls-12" d="M8.39,54.26c-.48-1.68-1.4-3.11-3.03-3.98l-2.83-1.5c.24,3.43.93,6.83,4.16,8.49.28.15.41.41.47.65-.04.23-.32.38-.59.25-4.24-1.98-4.87-6.64-4.9-10.92,3.19,2.13,6.29,2.56,7.41,6.43l-.69.58Z"/>
        <path class="cls-33" d="M69.91,48.25c-.17-.36-.24-.74-.2-1.18,3.26-1.72,5.62-.39,9.43-1.92-1.13,2.17-3.29,3.21-5.49,3.67-1.09-.96-2.39-1.24-3.74-.57Z"/>
        <path class="cls-28" d="M66.23,14.98c-.81.04-1.59-.28-2.36-.49.15.04.11-.12.06-.23-.4-.81-.64-1.64-.82-2.53l-.64-3.24c2.27,1.36,3.68,3.88,3.77,6.49Z"/>
        <path class="cls-22" d="M7.95,39.84c-.06.23-.29.3-.5.3-.77-1.13-2.43.3-2.99-1.4-.21-.64-.03-1.33.6-1.65.56-.29,1.2-.09,1.61.26.44.37.41.91.57,1.51.09.31.55.72.71.98Z"/>
        <path class="cls-9" d="M7.63,55.33l-.14.66c-.63-.23-1.06-.81-1.53-1.36-.71-.91-1.43-1.79-1.65-2.97,1.01,1.34,2.05,2.61,3.31,3.67Z"/>
        <path class="cls-18" d="M63.53,17.68c1.49,1.3,3.28.75,3.28,2.98-.96-.99-2.75-1.42-4.07-1.8-.23-.27-.49-.54-.15-.9.23-.24.61-.58.94-.28Z"/>
        <path class="cls-34" d="M65.46,16.25c.15.4.36.75.4,1.24l-1.34-.87c.3-.18.54-.73.94-.37Z"/>
        <path class="cls-14" d="M41.58,6.99l.2.91c-.84.87-1.92,1.49-3.24,1.86-.82.37-.88.9-.17,1.59.73.5,1.16,1.23,1.49,2.03.15,1.39-1.93,1.83-3.09,1.8l-3.04-.07c-.55-.01-1.06.24-1.22.69-.15.41-.07.94.31,1.23l1.34,1.05c.45.35.67.89.6,1.44-.21,1.54-2.6,1.78-3.99,1.3l-3.81-1.31c-.61-.21-1.45-.3-1.83.33-.35.58.85,1.48.4,2.25-.49.85-1.94.67-2.87.45-1.85-.43-3.61-.28-5.46.29.58-.55.93-1.37,1.61-1.75,1.33-.76,2.85-.3,4.38-.18-1.02-.75-2.25-.78-3.59-.79l1.54-1.7c2.05-2.27,7.98-1.15,10.49.31-.1-.5-.64-.47-.98-.68-2.31-1.41-4.88-1.69-7.55-1.52,1.32-1.09,2.26-2.48,3.66-3.17,2.13-1.04,4.64-.87,6.95-.8,1.1.03,1.99.43,3.09.29-2.87-.97-5.82-1.16-8.87-.64,4.64-3.82,4.58-4.43,11.08-4.82-1.62-.38-3.32-.21-4.95.04l3.85-2.85c-1.57.62-2.8,1.61-4.32,2.53.44-1.26,1.17-2.5,1.23-3.97-2.6,5.9-2.49,4.67-7.21,8.34.7-2.64,1.24-4.96.91-7.38-.43,2.92-.67,5.9-2.31,8.38-.88,1.33-2.44,2.09-3.64,3.36.35-2.52.48-5.13-.64-7.47.49,3,1.33,6.45-.63,8.64l-2.27,2.52c-.12-1.29.04-2.32-.69-3.29.23,2.6.53,3.95-1.63,5.69.26-1.84.31-3.43.06-5.17-.11-.77-.23-2.41.59-2.71.87-.32,1.52.82,2.33.26,1.47-1.01-1-5.19.4-7.78.45-.84,1.42-1.39,2.25-.83,1.02.69,1.11,2.7,2.49,2.45.41-.08.78-.51.89-1.02l.75-3.54c.24-1.15,1.07-2.22,2.31-2.36,1.82-.21,1.16,2.55,2.48,2.89.61.16,1.1-.21,1.48-.69.61-.79,1.87-2.97,3.04-2.57.32.11.63.38.72.79.15.67.7,1.01,1.41.84.61-.14,1.13-.44,1.74-.63.72-.23,1.71,0,1.87.81.24,1.24-1.38,1.95-1.2,2.9.14.75,1.09.89,1.25,1.41Z"/>
        <path class="cls-19" d="M50.95,23.33l-.53.71c-.94-1.28-1.52-2.86-1.79-4.59,2.65.46,4.73,1.88,7.08,3.09-1.77-1.7-3.92-2.78-6.14-3.64.62-.36,1.2-.5,1.85-.65l9.25-2.1c-3.93.19-7.65.98-11.4,1.96,2.18-3.31,4.15-6.41,6.05-9.69.19-.33.64-.54.45-1l-7.19,10.31c-.43-3.8-.95-7.54-2.33-11.1.67,3.71,1.47,7.18,1.52,11.05-1.51-1.71-3.14-3.17-5.21-4.12,1.89,1.82,3.56,2.67,5.04,5.18-1.68.28-3.35.31-4.93-.11.56-.56.97-1.2.59-1.8-.59-.92-1.56-1.32-2.62-1.78.4-1.25.01-2.4-.87-3.54,1.26-.06,2.43.55,3.7.33.58-.1.59-.98.45-1.43l-1.14-3.58c2.23.3,2.17-2.72,2.53-4.23.96,1.38,1.6,2.76,3.39,2.69.19.89.35,3.81,1.19,4.03,1.53.4,2.62-3.57,3.19-4.83,1.46,1.95,3.47.04,5.24-.95.04,1.4-1.21,4.76,1.39,5.31-.9,1.15-3.63,3.67-3.09,4.81.4.84,3.34,0,4.2-.3.47,1.5,2.18,1.85,3.7,2.16l-2.15,1.51c-.9.63-1.07,1.68-.54,2.72-1.19.12-4.47-.17-4.92.72-.4.78,1.26,3.16,1.78,4.26-1.35-.43-2.54-.88-4.05,0-.83-.84-2.54-2.94-3.69-1.4Z"/>
        <path class="cls-36" d="M42.38,8.31c.22.87.65,1.68.77,2.74l-4.29-.56c-.33-.17-.56-.32-.21-.57.99-.35,1.93-.8,2.8-1.35.38-.53.7-.62.93-.26Z"/>
        <path class="cls-31" d="M41.93,7.49c0,.34.38.53.45.82-.32-.04-.47.3-.72.51-.87.71-1.91.93-2.98,1.43,0,.09.17.14.19.25-.26-.03-.52-.31-.82.03.26.26.36.55.33.83-.4-.11-.95-.63-.76-1.13.54-1.4,4.33-1.19,3.96-3.23.05.17.35.33.35.5Z"/>
        <path class="cls-21" d="M55.37,59.66c-1.54,2.15-2.9,4.28-4.66,6.28.13-1.33.06-2.52.22-3.76l.21-1.58c-.97,1.5-.58,5-1.83,6.66s-2.7,2.85-4.33,4c.5-1.31.83-2.5.85-3.86l.04-3.89c-.51,1.23-.47,2.47-.64,3.86-.72,5.79-2.84,5.81-7.69,8.23.05-6.8,1.5-12.14,8.06-15.12,4.19-1.9,8.38-2.53,12.09-5.53.77,7.62-.6,17.79-7.66,21.96-3.92,2.32-7.94,1.75-11.9-.64,4.06-1.55,2.74-2.41,7.46-1.9,2.03.22,4.01.17,5.8-.72-1.43.19-2.73.38-4.13.23l-3.77-.41,4.43-3.41c.84-.65,5.28-.61,6.98-2.69-2,1.11-3.87,1.33-5.94,1.54,2.62-2.86,4.96-5.73,6.41-9.24Z"/>
        <path class="cls-21" d="M17.69,39.8c-1.19,2.49-2.48,4.86-4.5,6.86-.54-1.64-.4-3.45.4-5.03,1.26-2.5,3.53-3.69,5.52-5.79,1.41,4.35.09,10.07-5.13,11.2,1.64-2.28,3.21-4.51,3.71-7.25Z"/>
        <path class="cls-7" d="M7.79,34.69c-1-2.18-1.39-4.57-2.01-7.1-.08,2.5.62,4.89,1.3,7.38-4.19-2.57-3.4-9.56-1.27-13.41.41,3.3,1.99,5.64,2.6,8.96.15,1.38.18,2.7-.62,4.16Z"/>
        <path class="cls-13" d="M65.69,58.63c2.12-1.78,4.69-2.77,7.47-3.55-2.87.12-5.5,1.4-7.97,2.98,1.78-2.46,3.96-4.34,6.38-6.04-1.44.43-2.47,1.42-3.64,2.28-1.3,1.11-2.39,2.32-3.54,3.58,1.13-3.15,1.85-6.36,1.62-9.75-.31,3.15-.8,6.27-2.14,9.16.21-2.95.06-5.77-1.12-8.37.53,2.76,1.01,5.4.4,8.23-.32-2.74-1.31-5.42-3.33-7.41,1.43,2.3,2.63,4.64,2.7,7.4-1.07-3.25-2.65-4.35-5.03-6.47-.28-.25-.29-.76-.17-1.08.4-1.01,2.01-.63,3.44-2.12.79-.82,2.03.36,3.41-.61.3-.21.68-.33,1.05-.22,1.06.31,2.33.32,2.76,1,.26.41.2.9.07,1.35l-1.24,4.34c1.19.15,3.16-4.31,5.03-3.65,1.27.45.77,1.89,2.29,3.08,1.18.93.01,2.01,1.03,3.46.22.31.3.78.12,1.13-.73,1.4-.11,2.4-.72,3.07-.23.25-.67.26-1.02.13l-2.67-1c-1.55-.58-3.08-.56-4.81-.36,1.81-.81,3.74-1.14,5.77-1.19.68-.01,1.32.26,1.94.01-2.77-.66-5.39-.49-8.1.63Z"/>
        <path class="cls-30" d="M8.48,64.13c-1.42-1.42.44-2.07-.32-3.72-.18-.4-.15-.85.17-1.16,1.49-1.43.07-3.22,1.64-4.08,1.4-.77,4.87,2.68,6.32,2.97l-2.11-4.02c-.3-.57-.69-1.27-.57-1.96.17-.98,1.41-1.43,2.33-1.32,2.76.34,3.18-1.92,4.82-.8s3.45-.09,4.61,1.32c.46.56.22,1.29-.18,1.83-2.71,3.71-3.85,7.65-1.74,12.17-3.47-1.45-7.06-1.14-10.22.72-1.18.69-2.86,1.97-3.75,1.29-.83-.63-.03-2.26-1.01-3.24Z"/>
        <path class="cls-23" d="M32.88,79.17c-5.86-.1-14.58-3.94-14.99-10.61,3.58,2.27,6.03,6.5,9.93,8.26-1.5-1.12-2.87-2.19-4.11-3.61-1.64-1.88-3.26-3.68-5.21-5.32,2.25-.32,4.27.64,5.87,2.1,1.34,1.23,3.53,4.67,5.47,6.71.92.96,1.99,1.61,3.03,2.46Z"/>
        <path class="cls-27" d="M68.34,63.64c.26,2-.48,3.78-1.55,5.41-2.61,3.57-6.94,6.04-11.26,7.08,1.54-1.74,2.69-3.61,3.75-5.65,1.85-3.57,3.84-6.98,8.43-7.46l-3.75,4.93-3.3,3.96c3.06-2.35,5.04-5.36,7.68-8.26Z"/>
        <path class="cls-4" d="M13.99,34.27c2.2-2.49,4.7-4.28,7.24-6.28-2.86,1.27-5.02,3.37-7.51,5.42.7-5.02,7.24-8.09,12.06-7.87-3.06,2.37-4.26,5.56-7.16,7.46-1.4.92-2.99,1.55-4.64,1.27Z"/>
        <path class="cls-25" d="M11.95,25.31c-.33-2.69.1-5.24.46-7.95-1.04,2.48-1.15,5.12-1.26,7.92-3.08-3.57-.22-10.28,3.09-13.01-.59,3.16-.29,5.34-.47,8.5-.2,1.63-.58,3.22-1.82,4.54Z"/>
        <path class="cls-26" d="M8.13,47.05c-1.77-1.31-3.09-2.85-4.45-4.46.85,2.12,2.43,3.51,4.01,5.05-4.77-.37-7.49-6.31-6.76-10.57,2.06,4.51,7.01,4.52,7.21,9.98Z"/>
      </g>
      <g>
        <g>
          <path class="cls-6" d="M103.09,12.11v15.5c0,4.75,1.86,6.8,4.56,6.8,2.89,0,4.64-2.01,4.64-6.8v-15.5h4.52v15.08c0,7.52-3.65,10.9-9.31,10.9s-8.89-3.27-8.89-10.83v-15.16h4.48Z"/>
          <path class="cls-6" d="M121.83,37.72V12.11h4.86l5.93,10.98c1.44,2.66,2.89,5.74,3.95,8.44h.08c-.3-3.38-.42-6.88-.42-10.98v-8.44h4.1v25.61h-4.52l-5.96-11.17c-1.44-2.66-2.96-5.77-4.07-8.62l-.11.04c.19,3.19.27,6.65.27,11.21v8.55h-4.1Z"/>
          <path class="cls-6" d="M149.91,12.11v25.61h-4.48V12.11h4.48Z"/>
          <path class="cls-6" d="M175.25,24.65c0,8.89-4.64,13.45-10.94,13.45s-10.56-5.47-10.56-13.07,4.37-13.3,10.94-13.3,10.56,5.7,10.56,12.92ZM158.49,24.99c0,5.32,2.17,9.42,6.04,9.42s6-4.33,6-9.61c0-4.75-1.9-9.38-6-9.38s-6.04,4.29-6.04,9.57Z"/>
          <path class="cls-6" d="M179.09,37.72V12.11h4.86l5.93,10.98c1.44,2.66,2.89,5.74,3.95,8.44h.08c-.3-3.38-.42-6.88-.42-10.98v-8.44h4.1v25.61h-4.52l-5.96-11.17c-1.44-2.66-2.96-5.77-4.07-8.62l-.11.04c.19,3.19.27,6.65.27,11.21v8.55h-4.1Z"/>
          <path class="cls-6" d="M215.76,26.28h-8.59v7.68h9.65v3.76h-14.13V12.11h13.6v3.76h-9.12v6.69h8.59v3.72Z"/>
          <path class="cls-6" d="M227.96,12.45c1.48-.3,3.88-.53,6.31-.53,3.12,0,5.24.46,6.95,1.71,1.48.99,2.39,2.62,2.39,4.71,0,2.39-1.41,4.52-4.14,5.55v.11c2.81.72,5.02,2.96,5.02,6.34,0,2.2-.87,3.95-2.24,5.21-1.75,1.6-4.6,2.39-8.97,2.39-2.39,0-4.18-.15-5.32-.3V12.45ZM232.44,22.64h2.01c2.89,0,4.67-1.56,4.67-3.8s-1.6-3.57-4.41-3.57c-1.14,0-1.86.11-2.28.23v7.14ZM232.44,34.41c.49.11,1.18.11,2.09.11,2.85,0,5.28-1.22,5.28-4.29s-2.47-4.29-5.39-4.29h-1.98v8.47Z"/>
          <path class="cls-6" d="M268.65,24.65c0,8.89-4.64,13.45-10.94,13.45s-10.56-5.47-10.56-13.07,4.37-13.3,10.94-13.3,10.56,5.7,10.56,12.92ZM251.9,24.99c0,5.32,2.17,9.42,6.04,9.42s6-4.33,6-9.61c0-4.75-1.9-9.38-6-9.38s-6.04,4.29-6.04,9.57Z"/>
          <path class="cls-6" d="M275.91,15.99h-6.5v-3.88h17.55v3.88h-6.54v21.73h-4.52V15.99Z"/>
          <path class="cls-6" d="M292.14,30.65l-1.94,7.07h-4.56l7.45-25.61h5.58l7.41,25.61h-4.67l-2.05-7.07h-7.22ZM298.71,27.23l-1.75-6.19c-.42-1.6-.84-3.53-1.18-5.13h-.11c-.34,1.6-.72,3.57-1.14,5.13l-1.71,6.19h5.89Z"/>
          <path class="cls-6" d="M309.5,37.72V12.11h4.86l5.93,10.98c1.44,2.66,2.89,5.74,3.95,8.44h.08c-.3-3.38-.42-6.88-.42-10.98v-8.44h4.1v25.61h-4.52l-5.96-11.17c-1.44-2.66-2.96-5.77-4.07-8.62l-.11.04c.19,3.19.27,6.65.27,11.21v8.55h-4.1Z"/>
          <path class="cls-6" d="M337.58,12.11v25.61h-4.48V12.11h4.48Z"/>
          <path class="cls-6" d="M359.13,37.07c-1.03.49-3.12.99-5.78.99-7.45,0-11.93-5.02-11.93-12.84,0-8.85,5.7-13.45,12.54-13.45,2.66,0,4.52.53,5.36.99l-.95,3.65c-1.03-.49-2.39-.87-4.22-.87-4.48,0-7.98,3.04-7.98,9.46,0,6,3.08,9.27,7.94,9.27,1.6,0,3.27-.34,4.33-.8l.68,3.61Z"/>
          <path class="cls-6" d="M367.72,30.65l-1.94,7.07h-4.56l7.45-25.61h5.58l7.41,25.61h-4.67l-2.05-7.07h-7.22ZM374.29,27.23l-1.75-6.19c-.42-1.6-.84-3.53-1.18-5.13h-.11c-.34,1.6-.72,3.57-1.14,5.13l-1.71,6.19h5.89Z"/>
        </g>
        <g>
          <path class="cls-6" d="M101.08,53.92v8.57c0,2.62,1.03,3.76,2.52,3.76,1.6,0,2.56-1.11,2.56-3.76v-8.57h2.5v8.34c0,4.16-2.02,6.03-5.14,6.03s-4.91-1.81-4.91-5.98v-8.38h2.48Z"/>
          <path class="cls-6" d="M111.31,60.85c0-1.18-.04-2.1-.08-3h2.16l.13,1.45h.06c.46-.82,1.49-1.66,3-1.66,1.76,0,3.32,1.2,3.32,4.18v6.26h-2.48v-5.98c0-1.32-.44-2.41-1.72-2.41-.88,0-1.53.63-1.78,1.45-.06.21-.11.52-.11.84v6.11h-2.5v-7.22Z"/>
          <path class="cls-6" d="M125.04,55.06c.02.76-.52,1.34-1.38,1.34-.8,0-1.34-.59-1.34-1.34,0-.8.57-1.39,1.36-1.39s1.36.59,1.36,1.39ZM122.44,68.07v-10.23h2.5v10.23h-2.5Z"/>
          <path class="cls-6" d="M130.38,54.97v2.88h2.31v1.85h-2.31v4.75c0,1.24.38,1.78,1.24,1.78.4,0,.69-.04.92-.1l.04,1.91c-.38.13-.99.23-1.76.23-.88,0-1.62-.27-2.1-.78-.52-.57-.78-1.45-.78-2.83v-4.96h-1.39v-1.85h1.39v-2.27l2.44-.61Z"/>
          <path class="cls-6" d="M139.79,68.07l-.17-1.11h-.06c-.57.8-1.55,1.32-2.75,1.32-1.89,0-3.02-1.41-3.02-3.02,0-2.6,2.27-3.84,5.61-3.84v-.21c0-.78-.32-1.78-1.91-1.78-.92,0-1.85.29-2.5.71l-.48-1.64c.69-.42,1.93-.86,3.44-.86,3.09,0,3.93,1.99,3.93,4.22v3.8c0,.88.04,1.76.17,2.41h-2.25ZM137.44,53.5l1.74,3.04h-1.7l-2.44-3.04h2.39ZM139.45,63.03c-1.53-.02-3.23.34-3.23,1.95,0,1.05.65,1.49,1.37,1.49.88,0,1.57-.57,1.81-1.32.04-.19.06-.38.06-.57v-1.55Z"/>
          <path class="cls-6" d="M151.04,55.06c.02.76-.52,1.34-1.38,1.34-.8,0-1.34-.59-1.34-1.34,0-.8.57-1.39,1.36-1.39s1.36.59,1.36,1.39ZM148.44,68.07v-10.23h2.5v10.23h-2.5Z"/>
          <path class="cls-6" d="M153.5,60.85c0-1.18-.04-2.1-.08-3h2.16l.13,1.45h.06c.46-.82,1.49-1.66,3-1.66,1.76,0,3.32,1.2,3.32,4.18v6.26h-2.48v-5.98c0-1.32-.44-2.41-1.72-2.41-.88,0-1.53.63-1.79,1.45-.06.21-.1.52-.1.84v6.11h-2.5v-7.22Z"/>
          <path class="cls-6" d="M171.37,64.17l-1.07,3.91h-2.52l4.12-14.15h3.09l4.09,14.15h-2.58l-1.13-3.91h-3.99ZM175,62.28l-.97-3.42c-.23-.88-.46-1.95-.65-2.83h-.06c-.19.88-.4,1.97-.63,2.83l-.94,3.42h3.25Z"/>
          <path class="cls-6" d="M180.76,61.02c0-1.24-.04-2.27-.08-3.17h2.16l.1,1.83h.06c.46-1.32,1.55-2.04,2.58-2.04.23,0,.38.02.57.04v2.39c-.19-.04-.4-.06-.67-.06-1.09,0-1.93.73-2.16,1.89-.04.23-.08.52-.08.84v5.33h-2.48v-7.05Z"/>
          <path class="cls-6" d="M187.71,60.85c0-1.18-.04-2.1-.08-3h2.14l.11,1.43h.06c.48-.8,1.39-1.64,2.92-1.64,1.26,0,2.23.67,2.65,1.76h.04c.32-.52.74-.94,1.18-1.24.52-.34,1.13-.52,1.89-.52,1.66,0,3.15,1.2,3.15,4.24v6.19h-2.44v-5.82c0-1.55-.46-2.58-1.62-2.58-.8,0-1.39.57-1.64,1.3-.08.23-.1.55-.1.84v6.26h-2.44v-6.09c0-1.3-.44-2.31-1.6-2.31-.82,0-1.43.65-1.66,1.39-.08.25-.12.55-.12.84v6.17h-2.44v-7.22Z"/>
          <path class="cls-6" d="M213.18,62.89c0,3.86-2.48,5.4-4.79,5.4-2.67,0-4.66-1.93-4.66-5.27s2.08-5.38,4.81-5.38,4.64,2.06,4.64,5.25ZM206.25,62.97c0,1.89.78,3.49,2.23,3.49s2.18-1.62,2.18-3.51c0-1.57-.59-3.49-2.18-3.49s-2.23,1.87-2.23,3.51Z"/>
          <path class="cls-6" d="M215.18,60.85c0-1.18-.04-2.1-.08-3h2.16l.13,1.45h.06c.46-.82,1.49-1.66,3-1.66,1.76,0,3.32,1.2,3.32,4.18v6.26h-2.48v-5.98c0-1.32-.44-2.41-1.72-2.41-.88,0-1.53.63-1.79,1.45-.06.21-.1.52-.1.84v6.11h-2.5v-7.22Z"/>
          <path class="cls-6" d="M228.91,55.06c.02.76-.53,1.34-1.39,1.34-.8,0-1.34-.59-1.34-1.34,0-.8.57-1.39,1.37-1.39s1.37.59,1.37,1.39ZM226.31,68.07v-10.23h2.5v10.23h-2.5Z"/>
          <path class="cls-6" d="M236.7,68.07l-.17-1.11h-.06c-.57.8-1.55,1.32-2.75,1.32-1.89,0-3.02-1.41-3.02-3.02,0-2.6,2.27-3.84,5.61-3.84v-.21c0-.78-.32-1.78-1.91-1.78-.92,0-1.85.29-2.5.71l-.48-1.64c.69-.42,1.93-.86,3.44-.86,3.09,0,3.93,1.99,3.93,4.22v3.8c0,.88.04,1.76.17,2.41h-2.25ZM236.37,63.03c-1.53-.02-3.23.34-3.23,1.95,0,1.05.65,1.49,1.37,1.49.88,0,1.57-.57,1.81-1.32.04-.19.06-.38.06-.57v-1.55Z"/>
        </g>
      </g>
    </g>
  </g>
</svg>